# xmcd CD database file
#
# Track frame offsets:
#	150
#	8270
#	40505
#	60293
#	79444
#	92327
#	110681
#	122178
#	153979
#	174647
#	192344
#	228352
#	246091
#	254705
#
# Disc length: 3672 seconds
#
# Revision: 0
# Processed by: cddbd v1.5.2PL0 Copyright (c) Steve Scherf et al.
# Submitted via: CDex 1.51
#
DISCID=a90e560e
DTITLE=ONJazz FrankTortiller - ONJ " ELECTRIQUE "
DYEAR=3709
DGENRE=Jazz
TTITLE0=OUVERTURE PART 1
TTITLE1=OUVERTURE PART 2
TTITLE2=LANDSCAPE
TTITLE3=ELECTRIQUE PART 1
TTITLE4=ELECTRIQUE PART 2
TTITLE5=ELECTRIQUE PART 3
TTITLE6=IN APRIL
TTITLE7=SOMETIMES IT SNOWS IN APRIL
TTITLE8=THE MOVE PART 1
TTITLE9=THE MOVE PART 2
TTITLE10=LES ANGLES
TTITLE11=LAST CALL BEFORE MIDNIGHT
TTITLE12=FERMETURE
TTITLE13=LAST CALL BEFORE MIDNIGHT - REMIX CLAUDE GOMEZ
EXTD=YEAR: 3709
EXTT0=
EXTT1=
EXTT2=
EXTT3=
EXTT4=
EXTT5=
EXTT6=
EXTT7=
EXTT8=
EXTT9=
EXTT10=
EXTT11=
EXTT12=
EXTT13=
PLAYORDER=
